<svg xmlns="http://www.w3.org/2000/svg" xmlns:xlink="http://www.w3.org/1999/xlink" viewBox="0 0 450.3 281.5"><defs><style>.cls-1{fill:none;}.cls-2{clip-path:url(#clip-path);}.cls-3{fill:#fff;}</style><clipPath id="clip-path" transform="translate(-716.8 -410.7)"><rect class="cls-1" width="1920" height="1080"/></clipPath></defs><g id="Layer_2" data-name="Layer 2"><g id="Layer_1-2" data-name="Layer 1"><g class="cls-2"><path class="cls-3" d="M1109.1,413.9l-2,.3-1.4.5a7,7,0,0,0-3.2,4,10.3,10.3,0,0,0-.7,3.3l-.2.3-.5,6.5a2.8,2.8,0,0,1-.8,2h-.6a8.3,8.3,0,0,1-1.9-2.7,11.3,11.3,0,0,1-1.4-4.7v-1.4a11.4,11.4,0,0,1,1.5-4.3,3.5,3.5,0,0,0-1.6-.3,5.7,5.7,0,0,0-2.2.2,7,7,0,0,0-4.6,4.7v.3l-.2,1h0a8.2,8.2,0,0,0-.2,2.4l-.2,2.1a13.2,13.2,0,0,1-.5,3.5h-.1c0,.3-.2.5-.3.5h-.2a1.9,1.9,0,0,1-.9-.5,10.6,10.6,0,0,1-2.1-4.1v-.7c.2-1.7.5-3.1.6-4h.1v-1h.2l.2-.6-.7-.4a9.2,9.2,0,0,0-2.7.2,6.1,6.1,0,0,0-3.5,2.1,9.1,9.1,0,0,0-1.2,2.2,10.2,10.2,0,0,0-.8,3.6l-.3,3.4-.2.5v.2a2.4,2.4,0,0,1-.8,1.1l-.9.6h-.5a19.9,19.9,0,0,1-2.9-1.5h-.1v-.4a10,10,0,0,0,.3-3.9,7.1,7.1,0,0,0-.9-3,12.8,12.8,0,0,0-1.5-2.5,12.9,12.9,0,0,0-1.8-1.6l-.6-.5a4.8,4.8,0,0,0-2-1.2h0a11.1,11.1,0,0,0-3-.7,5.9,5.9,0,0,0-3,.4,8.2,8.2,0,0,0-4.6,3.3l-1.4,2.4a36.6,36.6,0,0,0-2.1,5.5,35,35,0,0,0-1,6.6,25.2,25.2,0,0,0,1.1,6.6l1.5,2a7.2,7.2,0,0,0,3.6,2c.1.1.6-1.3,1.5-4a6.3,6.3,0,0,1-.7,1.6l-.9-3.6c-.1-1.5-.3-2.7-.3-3.7s.3-2.8.5-4a14.2,14.2,0,0,0,3.4,3.5h0l.3.2a6.4,6.4,0,0,0,4.5.6,17.1,17.1,0,0,0,3-.9,17.3,17.3,0,0,0,3.2-3h0l1.1,1.2.7.6a7.3,7.3,0,0,0,1.9,1.1h.7l1.9.2h1.3a5.7,5.7,0,0,0,4.7-3.8l.9-2.7a22.6,22.6,0,0,0,2.6,3.7,7.4,7.4,0,0,0,4.3,1.6h.9a4.1,4.1,0,0,0,3.5-3.7h.1l.3-1.1h0l.4-2.1,1.1,2a11.8,11.8,0,0,0,3.2,3.1,6.7,6.7,0,0,0,2.7.7,4,4,0,0,0,3.5-1.5l.5-.7a9.7,9.7,0,0,0,1-3.6l1.1-9.9a11.5,11.5,0,0,1,1.9-5.2,4,4,0,0,0-1.7-.3m-45.2,10a2.4,2.4,0,0,1,1.7,1.9,5.6,5.6,0,0,1,.2,3.4,6.5,6.5,0,0,1-3.1,4.6,2.7,2.7,0,0,1-1.9.6h-.4l-.6-.2a3.2,3.2,0,0,1-2-2.8V430a9.6,9.6,0,0,1,2.6-5.1,3.1,3.1,0,0,1,1.2-.9,3.9,3.9,0,0,1,2-.3h.3m90.5-3.5V420a8.9,8.9,0,0,0-3.3-7.9,7.8,7.8,0,0,0-3.7-1.4h-2.8a7.1,7.1,0,0,0-2.8.9,10,10,0,0,0-4.3,3.5,13,13,0,0,0-2.2,5.5v.3a11,11,0,0,0,.1,4.8,4.8,4.8,0,0,1-2,1.2h-.8a3.5,3.5,0,0,1-2.8-1.2,22,22,0,0,0,.6-3.7l.2-1.1v-2q-.3-3.6-2.4-5.1a9.6,9.6,0,0,0-5.5-1.5,8.5,8.5,0,0,0-2.3.3,15.3,15.3,0,0,0-2.9.7,13.7,13.7,0,0,0-4.8,3.1,9.3,9.3,0,0,0-2.4,5.2v1.5a9,9,0,0,0,2.3,5.2,8.6,8.6,0,0,0,3.6,1.7h1.3a7.8,7.8,0,0,0,2.2-.4l2.9-1.2a18.8,18.8,0,0,1-2.2,4.2,2.7,2.7,0,0,0-.7.8,26.2,26.2,0,0,1-2.2,2.5l-1.6,1.5-2.5,2.3h.2a3.7,3.7,0,0,0,2.5.9h1.4l2-.5.9-.3,1.5-.9,1-.7a1.6,1.6,0,0,1,.5-.6l.5-.6a23.6,23.6,0,0,0,3.3-4.5,28.7,28.7,0,0,0,1.8-4,11.9,11.9,0,0,0,3.4,2.8l.5.2a6.2,6.2,0,0,0,3.3,0,6.9,6.9,0,0,0,2.3-.9l.6-.4a11.5,11.5,0,0,0,5.4.6h1.4a9.9,9.9,0,0,0,5.3-2.7,26.8,26.8,0,0,0,1.7-2.3,19.9,19.9,0,0,0,1.5-4.9v-.7m-5.4-.2v.3a8.1,8.1,0,0,1-.7,2.7,8.7,8.7,0,0,1-1.6,2.3,4.4,4.4,0,0,1-3,1,3.6,3.6,0,0,1-1.4-.2c-1-.6-1.6-1.8-1.6-3.6a8.1,8.1,0,0,1,.3-1.9,8.9,8.9,0,0,1,1.9-3.6,8.3,8.3,0,0,1,1.6-1.2,2.7,2.7,0,0,1,2.3-.3l1.1.6a4.5,4.5,0,0,1,1.1,3.9m-30.2-2.7a2.6,2.6,0,0,1,1.5-.7,3.2,3.2,0,0,1,1.4-.3l.8.2a3.2,3.2,0,0,1,1.6,2.1,5.3,5.3,0,0,1,.2,2.5v.9a6.6,6.6,0,0,1-3.1,4.8l-.9.3a3.8,3.8,0,0,1-1.5-.1l-1.4-.8a5.3,5.3,0,0,1-1-3.6l.2-1.3a13.1,13.1,0,0,1,.8-2.1,9.4,9.4,0,0,1,1.4-1.9M804.9,469.1a3.7,3.7,0,0,0-2.3-.9,12,12,0,0,0-2.8.3,14.3,14.3,0,0,0-5.3,2.4,14,14,0,0,0-3.5,3.8,15.3,15.3,0,0,0-1.9,4.1v.4a19.6,19.6,0,0,0-.5,4.8,6.6,6.6,0,0,0,1.1,4,3.6,3.6,0,0,0,2.7,1.9,9,9,0,0,0,4,0,17.9,17.9,0,0,0,3.7-1.5,9.8,9.8,0,0,0,2.8-2.5,4.8,4.8,0,0,0,1-2.9,1.7,1.7,0,0,0-.3-1l-.6-.6a7.2,7.2,0,0,1-2.1,2.5,8.5,8.5,0,0,1-2.8,1.2c-1.2.3-2,.2-2.5-.3a4.5,4.5,0,0,1-.9-2.4l.2-1.7,1.9-.4,3.7-1.5,1.3-.7a9.7,9.7,0,0,0,3.1-2.9,5.9,5.9,0,0,0,1-3.5,3.4,3.4,0,0,0-.9-2.6m-4.8,1.9a2,2,0,0,1,.4,1.4,6.2,6.2,0,0,1-.3,2.1,5.9,5.9,0,0,1-1.1,2l-1.8,1.5-1.7.8-.6.2.5-3.4,1-2.4,1.1-1.7a4.2,4.2,0,0,1,1.4-.9,1.2,1.2,0,0,1,1.1.4m-30.8,15a5.8,5.8,0,0,0-1.7,2.1,7.1,7.1,0,0,0-.5,2.6,5.1,5.1,0,0,0,.9,2.7,4.4,4.4,0,0,0,2.6,1.6,8.3,8.3,0,0,0,4.4-.1,14.2,14.2,0,0,0,3.9-1.4,25.3,25.3,0,0,0,3.6-2.5,12,12,0,0,0,2.5-3.3,7.1,7.1,0,0,0,.9-4,5.5,5.5,0,0,0-.8-2.9,6.9,6.9,0,0,0-1.6-1.8l-4.4-2.4a8.3,8.3,0,0,1-1.7-1.2,3.7,3.7,0,0,1-.8-1.9,2.9,2.9,0,0,1,.8-2.1,3,3,0,0,1,1.9-1.3c1-.2,1.7-.1,2,.2a2.7,2.7,0,0,1,.7,2l-.2,1.3-.5,1.4,1,.2h1.2a5,5,0,0,0,1.9-1.1,3.9,3.9,0,0,0,1.5-1.6,3.7,3.7,0,0,0,.5-2.3,2.7,2.7,0,0,0-.9-2.2,4.5,4.5,0,0,0-2.7-.7,17.1,17.1,0,0,0-3.7.3,23.5,23.5,0,0,0-3.7,1.4,13.9,13.9,0,0,0-3.2,2.3,7.3,7.3,0,0,0-2.2,2.7,6.3,6.3,0,0,0-.9,3.5l.3,1.4a3.6,3.6,0,0,0,.4.9,9.3,9.3,0,0,0,1.6,1.8l4.3,2.4a12.5,12.5,0,0,1,1.9,1.5,4,4,0,0,1,.7,2.4,3.3,3.3,0,0,1-.4,2.1,2.9,2.9,0,0,1-1.3,1.4,5.6,5.6,0,0,1-1.7.9,2.6,2.6,0,0,1-2.2-.3,1.9,1.9,0,0,1-.8-1.5,2.7,2.7,0,0,1,.4-1.6,2.6,2.6,0,0,1,1.3-1h1.2v-.9a2.4,2.4,0,0,0-.6-1.5,1.9,1.9,0,0,0-1.4-.8,3.4,3.4,0,0,0-2,0,4.8,4.8,0,0,0-2.5,1.4m116.2-34a2.6,2.6,0,0,0-1.5-2.3,5.5,5.5,0,0,0-3.7-.2,8.9,8.9,0,0,0-3.8,1.8,6,6,0,0,0-1.6,1.6l-1.1,1.8-.3-1-.4-.7c-.8-1-2.2-1-4.1,0l-3.4,20.4,6.6-2.2,2.4-14.3.3-.6h0l.2-.5a4,4,0,0,1,.7-1.3,3.1,3.1,0,0,1,.7-.9,1.6,1.6,0,0,1,1.1-.5q.9-.3,1.2.3h0a2.7,2.7,0,0,1,.3,1.2l-1.7,12.5a3,3,0,0,0,1.1,2.4,3.2,3.2,0,0,0,2.8.3,7.1,7.1,0,0,0,2.6-1.3,3.3,3.3,0,0,0,1.6-2.2,1.7,1.7,0,0,1-1.2-.3,1.7,1.7,0,0,1-.5-1.2l1.8-12.1V452M826,463.7c-2-.2-3.7.8-5.2,3.1a3.1,3.1,0,0,0-1.2-1.1,5.5,5.5,0,0,0-5.6-.7q-4.1,1.5-6.3,7.8v.2a32,32,0,0,0-1,5.8c0,.4-.1.8-.1,1.2a12,12,0,0,0,.8,3.7,4.1,4.1,0,0,0,2,2.1,5.1,5.1,0,0,0,3.3.2l.5-.2a5.9,5.9,0,0,0,2.5-1.3,6.4,6.4,0,0,0,2.3-2,2.7,2.7,0,0,0,1,1.1v.2h2.4l1.8-.6.4-.2h.1a2.4,2.4,0,0,0,1-1,3.2,3.2,0,0,0,.9-1.5h0a1.1,1.1,0,0,1-1.2-.4,1.3,1.3,0,0,1-.4-1l2.1-15.3m-9.1,6a1.1,1.1,0,0,1,.9.5,6.1,6.1,0,0,1,.7,1l.3,1.5v.7h-.2v1.8a9.5,9.5,0,0,1-.9,2.5l-.7,1-.7.8a5.3,5.3,0,0,1-2,.9,3.5,3.5,0,0,1-1.2.2h-.2a2.9,2.9,0,0,1-1.1-.6l-.6-1.1-.3-1.5a4.4,4.4,0,0,1,.2-1.8v-.9a9.9,9.9,0,0,1,1-2.3l.7-1.1.6-.7a7.2,7.2,0,0,1,2.2-1,2.2,2.2,0,0,1,1.4,0M850,458.9a12.5,12.5,0,0,0-1.7,2,15.7,15.7,0,0,0-2,4.6,16.4,16.4,0,0,0-.7,5.2,13.3,13.3,0,0,0,.7,3,3.6,3.6,0,0,0,1.5,2,5,5,0,0,0,2.5.9,9,9,0,0,0,3.2-.2,11.4,11.4,0,0,0,4.6-2.1h.2l1.3-1a11.8,11.8,0,0,0,2-2.7,12.5,12.5,0,0,0,1.5-2.7l.7-2a12.4,12.4,0,0,0,.5-3.1v-2a9.5,9.5,0,0,0-.3-2.5v-.7l-.4-.7h0l-.3-.4-.7-.6-.4-.3a4.1,4.1,0,0,0-1.9-.5,7.9,7.9,0,0,0-3.4.2l-2.8.9-1.4.8-.6.5h-.2l-1.6,1.5m7.1,1.3a2.1,2.1,0,0,1,1,.6,1.4,1.4,0,0,1,.6,1,3.3,3.3,0,0,1,.3,1.5,21.3,21.3,0,0,1-.2,2.7,8.2,8.2,0,0,1-1,2.4,4.2,4.2,0,0,1-1.3,1.8,5.1,5.1,0,0,1-2.1,1,3.3,3.3,0,0,1-1.4,0,1.8,1.8,0,0,1-1-.4l-.7-1.1a7.9,7.9,0,0,1-.2-1.7,24.6,24.6,0,0,1,.2-2.6,18.6,18.6,0,0,1,.9-2.4,5.5,5.5,0,0,1,1.4-1.7,4.3,4.3,0,0,1,2.1-.9,4.2,4.2,0,0,1,1.4-.2m-19.1-.7h-.4a12,12,0,0,0-3.1,1.3h-.2a12,12,0,0,0-2.8,1.6,6.8,6.8,0,0,0-2,2.4,4.8,4.8,0,0,0-.8,2.7,3.8,3.8,0,0,0,.6,2.2,3.6,3.6,0,0,0,1.5,1.5l4.3,2.1a6.8,6.8,0,0,1,1.9,1.1,2.1,2.1,0,0,1,.2,3.3,5.6,5.6,0,0,1-1.9.9h-.5a1.6,1.6,0,0,1-2-1.6l.3-2.6h-2.6a6.7,6.7,0,0,0-1.7.8h-.1l-.6.3a4.4,4.4,0,0,0-.8,1.1,4.1,4.1,0,0,0-.5,1.8v.2a2.6,2.6,0,0,0,.7,1.6l.8.5.6.2h2.9l2.9-.4h.2a21.1,21.1,0,0,0,4.5-1.8l.3-.2,1.8-1.5,1-1.3a6.2,6.2,0,0,0,1-3.5,3.4,3.4,0,0,0-.7-2.2,4.3,4.3,0,0,0-1.6-1.4H841l-4.4-2a5.6,5.6,0,0,1-1.5-1,2,2,0,0,1-.6-1.5,2.3,2.3,0,0,1,.6-1.6,2.9,2.9,0,0,1,1.6-.9,1.4,1.4,0,0,1,1.6.3,2.1,2.1,0,0,1,.7,1.7l-.2,1.1-.3,1h2.7a5.5,5.5,0,0,0,2.3-1.2v-.2a2.9,2.9,0,0,0,1-2.5,2.2,2.2,0,0,0-1.1-2.2h0l-1.5-.4h-1.1a12.9,12.9,0,0,0-2.9.3m122.6,5.7h.1L948.5,467h-.2l-1.3.5a14.2,14.2,0,0,0-6.5,5,11.1,11.1,0,0,0-1.8,6.3c0,.8.1,1.6.1,2.5v.8c0-.2-.1-.3-.1-.5v.3a18.9,18.9,0,0,0-2.2-3.1l-.4-.4-.8-.9c-5.3-5.1-16-5.7-32.3-1.7l-12.5,3-10.6,2.7-8.1,2.1c-4.3,1.2-6.6,3.7-6.9,7.4-1-3.3-3.5-4.5-7.4-3.5l-7,1.8-3.9,1.1-4,1-12.1,3.1-17.7,4.4-3.8.9-10.2,2.4c-5.3,1.3-7.9,4.4-7.8,9.5a7.4,7.4,0,0,0-3-4.2c-1.9-1.2-4.4-1.7-7.7-1.3a20.4,20.4,0,0,0-4.5.8l-3.2.6-1.7.4-6.3.9h0a10.8,10.8,0,0,0-1.9.3c-4.9,1.3-7.6,4.3-8.1,8.9v68.7a33.5,33.5,0,0,1-.6,5.9c0,.1-.1.1-.1.2-.9,3.3-2.6,5.5-5.3,6.6a6.1,6.1,0,0,1-5.6,0,6.7,6.7,0,0,1-2-2.1,7.7,7.7,0,0,1-1-1.8h0a21,21,0,0,0-1.3-2.6l-.5-.9-.5-.7a8.6,8.6,0,0,0-.7-1,14.7,14.7,0,0,0-1-1.3,24.4,24.4,0,0,0-3.7-3.5,20.3,20.3,0,0,0-2.3-1.4,8.5,8.5,0,0,0-7.3,0l-.4.3c-3.4,1.6-5.1,3.8-5.1,6.7a12.8,12.8,0,0,1-.1,1.8c0,2.5-.1,6.7-.1,12.6-.1,1.5-.1,3.2-.1,4.9s-.1,3.5-.1,5.4v14.3c.7,4.1,3.2,7.4,7.5,10s7.6,4.5,10,5.7l1.7.8,1,.4.7.2H743l2.6-.2,19.4-2.3h-.5l1.3-.2,5.5-.8,5-.7h.7l10.3-1.8h.5a7,7,0,0,0,4.4-3.4,7.8,7.8,0,0,0,.8-2.3c2.1,2.5,5.6,3.1,10.5,2l14.9-3.5,6.1-1.5c12.1-3,24.1-6.1,36.2-9.4a8.5,8.5,0,0,0,6.1-8.7c1.1,4,4.8,5.3,11,4.1l12.7-3.4,3.2-.8q10.5-2.7,20.7-4.8l14.5-3.2h-.1a32.8,32.8,0,0,0,5.5-1.7c2.7-.9,4.4-2.9,5.2-6a6.8,6.8,0,0,0,7.8,4.7l5.5-.9,27.9-4.3,6.6-1.1h.8l3.4-.5,15-2.5,2.6-.5a7.6,7.6,0,0,0,5.4-3.7,7.8,7.8,0,0,0,.5-1.4c1.8,2.9,5.6,4,11.3,3.3l11.5-1.3h.5l1.3-.2c4.7-.7,9.1-1.3,13.2-1.7s7.8-1,11.2-1.2l13-1.2h0c5.8-.7,8.7-2.9,8.8-6.7.8,4.1,3.6,6,8.2,5.6s8.6-.5,12.9-.6a10.7,10.7,0,0,0-1.5,4.1,7.6,7.6,0,0,0-.1,1.5,8.1,8.1,0,0,0,.1,1.6,6.4,6.4,0,0,0,.2.7,7.8,7.8,0,0,0,.5,1.8l.3.7a.3.3,0,0,1,.1.2h.1a10.4,10.4,0,0,0,2.6,3,11.5,11.5,0,0,0,8,2.3h.2l1-.2,1.9-.4a11.5,11.5,0,0,0,2.5-1.2,32.8,32.8,0,0,0,3.7-2.4,27.9,27.9,0,0,0,4.6-4h.2l.7-.6c.1-.2.3-.3.3-.4l.4-.5a13,13,0,0,0,2.5-4.2h0a8.3,8.3,0,0,0,.4-1.5v-.3l10,.4h.7l.7-.4a4.2,4.2,0,0,0,1.2-.8l11.3-7.6c5.1-3,7.6-7,7.4-11.8V481.1a62.5,62.5,0,0,0,.1-8.6,40.6,40.6,0,0,0-.4-5.1c-.9-6.6-3.1-11.4-6.6-14.1a19.4,19.4,0,0,0-6.7-3.5,36.8,36.8,0,0,0-6.3-1.3,65.9,65.9,0,0,0-14.7.1l-10.9.9-1.1.2h-2.9a22.2,22.2,0,0,1-10.6-2.3,23.4,23.4,0,0,0-6.3-2.7c-6.3-1.4-10.2,1.1-11.6,7.6a11.5,11.5,0,0,0-4.8-3.4,14.7,14.7,0,0,0-5.7-.2l-6,.6a35.5,35.5,0,0,0-4.7.6h.1l-13.1,1.5h-.1l-32.8,4.8c-3.9.4-6.2,2.8-7,7.2h-.1a13.2,13.2,0,0,0-8.2-4.6,15.8,15.8,0,0,0-5.7.2l-4,.6,2.2-2h0a5.2,5.2,0,0,0,1.1-1h.1l.6-.7.4-.4.3-.4a13.3,13.3,0,0,0,2.5-4.2.3.3,0,0,1,.1-.2c.1-.3.1-.5.2-.8h0a9.1,9.1,0,0,0,.3-2.3h0V447a9.9,9.9,0,0,0-1-4.5h-.1v-.3a10.3,10.3,0,0,0-2.8-3.1,9.9,9.9,0,0,0-3.6-1.7H997a11.5,11.5,0,0,0-5-.5h-.5a12.9,12.9,0,0,0-5.6,2.2,6.8,6.8,0,0,0-2.1,1.3,52.8,52.8,0,0,0-4.2,3.9,28.8,28.8,0,0,0-2.5,2.6H977l-.8,1.2h0a11.1,11.1,0,0,0-1.9,4.7,6.5,6.5,0,0,0,0,3.2,2.5,2.5,0,0,0,.2.7,4.1,4.1,0,0,0,.5,1.8c.1.2.1.4.3.6v.2h.2a9.7,9.7,0,0,0,2.5,3l-2.5.4h0l-1.7.3h-1.7l-.8.2-2.1.3h-.4l-4.1.6-4.1.7m-57.6,16,3.3-.7,7.6-1.7h.2a28.4,28.4,0,0,1,10.9,0,15.1,15.1,0,0,1,5.6,2.4,13.3,13.3,0,0,1,3.7,4.1,20.9,20.9,0,0,1,1,2.1c0,.1.1.2.1.4a23.3,23.3,0,0,1,1.1,4.2l.3,86.6a12.5,12.5,0,0,1-.9,3.7,16.2,16.2,0,0,1-1,1.8l-1.3,1.8h-.1a13.1,13.1,0,0,1-6.6,4.1h-.1a29.7,29.7,0,0,0-4.3.8h-.1l-.6.2L883.5,600a4.2,4.2,0,0,0-1.2.3l-.7.2-1.6.4-3.7,1h-.2c-4.4.8-6.8-.8-7.2-4.7V494.5c.3-3.1,2.2-5.1,5.9-6.2l5.6-1.5c7.6-2,15.1-3.9,22.6-5.6m45.3-8.7,2.1-.5,2.2-.3h.2l22.8-3.9,7.4-1.3c6.5-1,12.7-2,18.9-2.8a11.3,11.3,0,0,1,4.6.3c2.7,1,4.3,3.4,4.7,7.2,0,.4.1.8.1,1.2v96.9a13.6,13.6,0,0,1-.6,2.9,8.4,8.4,0,0,1-4.2,4.7,17.8,17.8,0,0,1-4.6,1.4c-14.4,2-25.3,3.7-32.6,5l-4.1.7L954,585.5h-1.2l-2,.2c-2.5.2-4.5-.4-5.7-1.7a5.7,5.7,0,0,1-1.2-1.8,14.6,14.6,0,0,1-.5-2,6.6,6.6,0,0,1-.1-1.4V481.2c0-4.6,1.6-7.5,4.9-8.7M861,521.2h-.2l-1.8.5-.7.2h-.8l-.8.3-1.9.5-1.8.5-.8.2-1.4.4-2,.5-2.2.5-10.5,2.7a2.7,2.7,0,0,0-1.8,1.3,2.7,2.7,0,0,0-.9,2.3v5.4a2.8,2.8,0,0,0,1.2,2.3h0a3.3,3.3,0,0,0,2,.3h.3l9.7-2.5,6.1-1.7h0l4.4-1.1,1.2-.4,2.5-.6h.6v32l-7.9,2.1-1.5.4-15.9,4.2H836a3.2,3.2,0,0,0-1.7,1.2h-.2a3.2,3.2,0,0,0-.7,2.2v5.4a2.3,2.3,0,0,0,1,2.2l.4.3a2.9,2.9,0,0,0,2.1.1l15.2-4h0l1.5-.5,1.6-.3,6.2-1.7v22.3c0,4.2-2.6,7-7.6,8.4l-21,5.6-29.3,7.4c-5.5.9-8.3-.8-8.4-4.8V515.8c0-4.6,2.4-7.4,7.2-8.2l11.3-2.7,13.8-3.4,3.5-.8,14.4-3.6,11.3-2.9c3.3-.9,4.9.6,4.9,4.5V521H861M722.5,592.9c.6-3.3,2.2-4.5,4.8-3.8a8.4,8.4,0,0,1,4.5,3.8,21.8,21.8,0,0,1,2.5,5.9l.8,2,.4.6.5.9,1,1.2h0l.7.8.5.3a8,8,0,0,0,2.8,1.3h0a6.4,6.4,0,0,0,2,.3,18.2,18.2,0,0,0,4-.2,21.5,21.5,0,0,0,7.9-3.2c3-1.8,4.7-4.7,5.2-8.8V521c.1-3.3,2-5.4,5.7-6.1l12.3-2,2.2-.4,1.8-.3c2.9-.7,4.6.7,5.4,4,.1.7.2,1.6.3,2.5V615h0v.2a11.3,11.3,0,0,1-.5,3.8,8.7,8.7,0,0,1-3.2,4.9,13.8,13.8,0,0,1-5.1,2.8h-.5l-7.5,1.5h0l-6.3,1.1-3,.5-3.2.5-1.2.2H757l-5.5.7-1.2.2-2.3.3-3.8.4L730,634.3c-5,.1-7.5-2.4-7.7-7.4V594.5a10,10,0,0,0,.2-1.6m438.8-125.5c0,.3.1.7.1,1.1v92.2a4.3,4.3,0,0,0-.1.5c0,.2-.1.3-.1.6s-.1.2-.1.4c-.9,3-3.5,4.8-7.8,5.3H1147c-8.2,0-17.2.2-26.7.5l-2.9.2c-6.8.2-14,.6-21.6,1a10.9,10.9,0,0,1-7.4-2.3c-1.5-1.7-2.2-4.3-2.1-8h0a16.1,16.1,0,0,1-1.9,6.8,9.4,9.4,0,0,1-7.1,4.6c-16.5,1.2-33.4,2.8-50.8,4.9-4.9,0-7.5-2-7.9-5.8V527.2l24.7-3.1h.5a4.1,4.1,0,0,0,2.1-1l.4-.3a3.9,3.9,0,0,0,1-2.7v-5.5a2.1,2.1,0,0,0-.8-1.8h-.1a2.4,2.4,0,0,0-1.1-.6h-.8l-9,1.2-6.9,1h-1.3l-1,.2-2.2.2-5.5.6V468.8a5.9,5.9,0,0,1,.2-1.4c.7-3.8,2.6-6.1,5.8-6.9a6.4,6.4,0,0,1,2-.3l1.8-.2,50.8-6c4.3-.2,6.7,2.6,7.1,8.4V520l31.7-1.2a3.2,3.2,0,0,0,2.1-.8l.4-.3a3.5,3.5,0,0,0,1-2.6v-5.4a2.4,2.4,0,0,0-1.2-2.3,3.8,3.8,0,0,0-2.2-.3l-8.4.4-16.1.6h-.1V455.7c-.2-4.6,1.3-6.6,4.6-6l1.7.4,2.7,1.2c3.7,1.9,8.7,3,14.9,3.3h2.9c2.7,0,5.8-.2,9-.4l6.8-.7a44.4,44.4,0,0,1,10.9-.1,19.4,19.4,0,0,1,6.3,2c4.4,2.2,7.1,6.2,8,11.9M985.4,444.9l.2-.3.4-.3h0a7,7,0,0,1,1.6-1.4l.4-.3a10.5,10.5,0,0,1,4.3-1.5c0-.1.1-.1.2-.1a10.2,10.2,0,0,1,3.5.3h0a7,7,0,0,1,2.3,1.1,5.5,5.5,0,0,1,1.6,1.8h.1v.2a5.5,5.5,0,0,1,.6,2.6v.3a8.8,8.8,0,0,1-.2,1.6h0a4.3,4.3,0,0,0-.1.5h0a23.8,23.8,0,0,1-1.8,3h0a.8.8,0,0,0-.4.4.2.2,0,0,0-.2.2c-.1,0-.1.1-.1.2l-.5.3h0a2.7,2.7,0,0,0-.8.7h-.2c0,.1-.2.1-.3.2l-1.2.7a15.8,15.8,0,0,1-3.1.9h-.9a7.7,7.7,0,0,1-5-1.4h0a6.3,6.3,0,0,1-1.2-1h0a2.1,2.1,0,0,1-.4-.6l-.2-.4c0-.1-.1-.2-.1-.3a6.2,6.2,0,0,1-.5-2.5,1.1,1.1,0,0,1,.1-.5v-.4h0a7.5,7.5,0,0,1,1.3-3.4l.2-.2h0v-.2l.3-.2m141.7,131.8h.1a5.1,5.1,0,0,1,2.2,1.1,5.4,5.4,0,0,1,2.4,4.7,7.7,7.7,0,0,1-.2,1.5,2.4,2.4,0,0,1-.2.8h0a11.9,11.9,0,0,1-1.8,3h0c-.1.1-.3.3-.3.4l-.3.2c0,.1-.1.2-.1.3a.5.5,0,0,0-.4.2l-.9.8-.6.4-1.1.6a22.9,22.9,0,0,1-3.1.9h.1l-.9.2h-1.7a10,10,0,0,1-2.9-1l-.5-.4a12.1,12.1,0,0,1-1.6-1.6.5.5,0,0,0-.2-.4.4.4,0,0,0-.1-.3,6.6,6.6,0,0,1-.5-2.5c0-.3.1-.6.1-1h0a8.8,8.8,0,0,1,1.4-3.4c.1-.1.1-.1.1-.2h.1c0-.1.1-.2.1-.3h.2l.3-.4c0-.1.2-.2.3-.3h0l.3-.4a6.1,6.1,0,0,1,1.4-1l.3-.3,1.2-.6a10.3,10.3,0,0,1,3.1-1h.2a8.1,8.1,0,0,1,3.5.2m-69.7-30.2a2.3,2.3,0,0,0-1.6-.6,2.1,2.1,0,0,0-2.4,2.4,2.3,2.3,0,0,0,.6,1.6,2.1,2.1,0,0,0,.8.6h1a2.3,2.3,0,0,0,1.6-.6,2.2,2.2,0,0,0,.5-2.5,2.6,2.6,0,0,0-.5-.9m3.1-48.1a3.2,3.2,0,0,0-.9-2.4,2.9,2.9,0,0,0-2.2-.9,3.2,3.2,0,0,0-2.3.9,3.4,3.4,0,0,0-.7,1.1,2.8,2.8,0,0,0-.3,1.3,3.2,3.2,0,0,0,1,2.2,3.2,3.2,0,0,0,2.3.9h1.2a3.9,3.9,0,0,0,1-.8,2.7,2.7,0,0,0,.9-2.2m-18,60.4a2.4,2.4,0,0,0-.2.9,2.3,2.3,0,0,0,.7,1.7,2.3,2.3,0,0,0,1.6.6h.9l.8-.5a2.3,2.3,0,0,0,.7-1.7,2.4,2.4,0,0,0-2.4-2.4,2,2,0,0,0-1.6.7,2.2,2.2,0,0,0-.5.8m-3.7-2.8h-.9a1.9,1.9,0,0,0-1.4,1.1,1.7,1.7,0,0,0-.2,1.8,2.1,2.1,0,0,0,1,1.4,2.3,2.3,0,0,0,1.8.2l.8-.3a2.1,2.1,0,0,0,.6-.8,2.6,2.6,0,0,0,.3-1.7,2.2,2.2,0,0,0-1.1-1.5,1.6,1.6,0,0,0-.9-.3m-2.3-3-.6-.6-.9-.5a2,2,0,0,0-1.8.3,2.2,2.2,0,0,0-1.1,1.5,2.8,2.8,0,0,0,.2,1.8,3.1,3.1,0,0,0,1.5,1,1.7,1.7,0,0,0,1,0l.8-.2a3,3,0,0,0,1.1-1.4,2.5,2.5,0,0,0-.2-1.9m-1.4-5.6a1.6,1.6,0,0,0-.5-.9,2.4,2.4,0,0,0-1.7-.6,1.9,1.9,0,0,0-1.2.4.5.5,0,0,0-.4.2,2.4,2.4,0,0,0-.7,1.8,2,2,0,0,0,.7,1.6l.4.4.3.2h.9a2.4,2.4,0,0,0,1.7-.6,2,2,0,0,0,.7-1.6c0-.4,0-.7-.2-.9m15.7,8.6a1.8,1.8,0,0,0-1.7.2,2.3,2.3,0,0,0-1.2,1.5v.8a1.7,1.7,0,0,0,.3,1,2.1,2.1,0,0,0,1.4,1,2.2,2.2,0,0,0,1.8-.2l.7-.6a3,3,0,0,0,.4-.8,2.5,2.5,0,0,0-.2-1.9,2.4,2.4,0,0,0-1.5-1m1.4-3.2a2.5,2.5,0,0,0-.3,1.7,4.1,4.1,0,0,0,.5.9l.6.6a2.3,2.3,0,0,0,1.8.2,2.2,2.2,0,0,0,1.5-1.1,1.6,1.6,0,0,0,.3-.9,2.8,2.8,0,0,0-.1-.9,2.4,2.4,0,0,0-4.3-.5m-.4-10.5a2.5,2.5,0,0,0,.3,1.7,2.4,2.4,0,0,0,1.4,1.2h1c.3,0,.5-.2.8-.3a2.1,2.1,0,0,0,1.1-1.4,2.2,2.2,0,0,0-.2-1.8l-.6-.7a2,2,0,0,0-.8-.4,2.3,2.3,0,0,0-3,1.7m-.7-5.7-.8-.3a1.6,1.6,0,0,0-1,.1,2.3,2.3,0,0,0-1.5,1.1,3.5,3.5,0,0,0-.2,1.8,2.1,2.1,0,0,0,1.2,1.4,2.3,2.3,0,0,0,2.5-.2,1.9,1.9,0,0,0,.6-.7,1.9,1.9,0,0,0,.2-1.8,1.8,1.8,0,0,0-1-1.4m-8.6-.6a2.2,2.2,0,0,0,.5,2.5,2.1,2.1,0,0,0,1.6.8,1.2,1.2,0,0,0,.9-.3l.8-.5a2,2,0,0,0,.7-1.6,2.2,2.2,0,0,0-.7-1.7l-.5-.4a2.7,2.7,0,0,0-1.2-.3,1.9,1.9,0,0,0-1,.3l-.6.4a2.2,2.2,0,0,0-.5.8m-3.1.2h-.6a2.2,2.2,0,0,0-1.9,1,1.6,1.6,0,0,0-.4.7v1a1.6,1.6,0,0,0,.3.8,2.2,2.2,0,0,0,1.5,1.1,2,2,0,0,0,1.7-.2l.8-.6.3-.8a2.3,2.3,0,0,0-1.7-3m-7.1,7a1.3,1.3,0,0,0,.3.8l.7.6a2.3,2.3,0,0,0,1.8.2,1.6,1.6,0,0,0,1.4-1.1,1.6,1.6,0,0,0,.3-.9,2.7,2.7,0,0,0,0-.9,2.4,2.4,0,0,0-1.2-1.4,2,2,0,0,0-1.7-.2l-.7.2a2.2,2.2,0,0,0-1.1,1.9,1.3,1.3,0,0,0,.2.8m17-49.8a1.7,1.7,0,0,0-1.2.1,3,3,0,0,0-1.9,1.4,2.8,2.8,0,0,0-.3,2.5,3.5,3.5,0,0,0,1.4,2,3.6,3.6,0,0,0,2.5.3l1.1-.6.9-.9a3.4,3.4,0,0,0,.3-2.4,3.1,3.1,0,0,0-2.8-2.4m2.2-7.9-.5-.2a1.1,1.1,0,0,0-1.1.1,1.1,1.1,0,0,0-.7.9,1.4,1.4,0,0,0,.1,1.1,1.4,1.4,0,0,0,1,.6.4.4,0,0,0,.5,0h.5a1.8,1.8,0,0,0,.8-.9,1.2,1.2,0,0,0-.2-1,.7.7,0,0,0-.4-.5m-9.7,2.6a2.5,2.5,0,0,0-1.5,2,2.8,2.8,0,0,0,.2,2.4,3.2,3.2,0,0,0,2.1,1.5,1.7,1.7,0,0,0,1.2.1,2.5,2.5,0,0,0,1.2-.4,3.5,3.5,0,0,0,1.5-1.9,2.8,2.8,0,0,0-.3-2.5,2.4,2.4,0,0,0-.8-.9l-1.2-.6a3.3,3.3,0,0,0-2.4.3m7.9-6.6a1.2,1.2,0,0,0-1,.4,1.4,1.4,0,0,0-.4,1.1,1.4,1.4,0,0,0,.4,1l.4.3h.6a1.7,1.7,0,0,0,1.1-.4,1.9,1.9,0,0,0,.3-1v-.6l-.3-.5a1.7,1.7,0,0,0-1.1-.4m2.4-2V479a1.3,1.3,0,0,0-.7-.9,1.4,1.4,0,0,0-1.1-.1.5.5,0,0,0-.4.2,1.1,1.1,0,0,0-.7,1.1,1.1,1.1,0,0,0,.1.5c0,.2.1.3.2.5l.4.4a1.4,1.4,0,0,0,1.1.1,1.1,1.1,0,0,0,.9-.7,1.4,1.4,0,0,0,.2-.6m-7.7,2a2.4,2.4,0,0,0-.8-1,2.7,2.7,0,0,0-2.2-1,2.9,2.9,0,0,0-2.3,1,3.3,3.3,0,0,0-1,2.3,3.2,3.2,0,0,0,1,2.2,3.8,3.8,0,0,0,1.1.8l1.2.2a3,3,0,0,0,2.2-1,2.7,2.7,0,0,0,.9-2.2,5.3,5.3,0,0,0-.1-1.3m2.2-7.4a3.2,3.2,0,0,0-1.6-2,3.3,3.3,0,0,0-2.4-.3l-.8.4a2.6,2.6,0,0,0-1.5,2.5,2.2,2.2,0,0,0,.1,1.1,2.7,2.7,0,0,0,.5,1.1,3.9,3.9,0,0,0,1,.8,2.9,2.9,0,0,0,2.4.3,2.8,2.8,0,0,0,2-1.5,2.7,2.7,0,0,0,.3-1.2,2.4,2.4,0,0,0,0-1.2m-.3-5.6a3.3,3.3,0,0,0,0,1.4,2.3,2.3,0,0,0,.3,1.1,3,3,0,0,0,2,1.5,3.1,3.1,0,0,0,2.5-.2,3.8,3.8,0,0,0,.9-.9,2.2,2.2,0,0,0,.5-1.1,3.1,3.1,0,0,0-.2-2.5,3.3,3.3,0,0,0-2-1.5h-1a3.3,3.3,0,0,0-2.5,1.5,1.4,1.4,0,0,0-.5.8m61.5,12.2a9.1,9.1,0,0,0,2.9,6.8,9.3,9.3,0,0,0,6.7,3h.2a9.2,9.2,0,0,0,6.9-3,9.1,9.1,0,0,0,2.9-6.8,9.5,9.5,0,0,0-2.9-7,9.4,9.4,0,0,0-6.9-2.8h-.2a9.7,9.7,0,0,0-9.6,9.8m-42,12.6a2.6,2.6,0,0,0-2.4.3,3.6,3.6,0,0,0-1.5,1.9,7.1,7.1,0,0,0-.1,1.4,2.2,2.2,0,0,0,.5,1.1,2.6,2.6,0,0,0,1.9,1.5,2.8,2.8,0,0,0,2.4-.2,4.5,4.5,0,0,0,1-.9,5.4,5.4,0,0,0,.5-1.1,3.1,3.1,0,0,0-.3-2.5,2.8,2.8,0,0,0-2-1.5m6.3-5.6a2.8,2.8,0,0,0-2.5-.3,3.1,3.1,0,0,0-1.9,1.5,3.3,3.3,0,0,0-.4,2.4l.6,1.2.9.8a3.1,3.1,0,0,0,2.5.2,2.5,2.5,0,0,0,2-1.4,5.6,5.6,0,0,0,.4-1.2,4.9,4.9,0,0,0-.1-1.2,2.8,2.8,0,0,0-1.5-2m-16.2,1.3-.3.5a.8.8,0,0,0-.2.5,1.6,1.6,0,0,0,.5,1.1,2.1,2.1,0,0,0,1.1.4h.5l.5-.3a1.5,1.5,0,0,0,.4-1.1,1.3,1.3,0,0,0-.4-1,1.4,1.4,0,0,0-1-.5,1.6,1.6,0,0,0-1.1.5m-2-1a.7.7,0,0,0-.6-.2.5.5,0,0,0-.5,0,1.3,1.3,0,0,0-.9.7.9.9,0,0,0-.1,1,1.3,1.3,0,0,0,1.7,1.1.6.6,0,0,0,.5-.2l.4-.4a1.5,1.5,0,0,0,.2-1.1,1.3,1.3,0,0,0-.7-.9m7.9.4a1.7,1.7,0,0,0-1-.6.9.9,0,0,0-1.1.1,1.3,1.3,0,0,0-.7.9v.5c0,.2.1.4.1.6a1.3,1.3,0,0,0,1,.6.9.9,0,0,0,1-.1.7.7,0,0,0,.5-.4.8.8,0,0,0,.2-.5,1.4,1.4,0,0,0,0-1.1m.7-3.4a1.8,1.8,0,0,0-.9.7,1.6,1.6,0,0,0-.1,1.2.9.9,0,0,0,.3.5l.3.4a2.5,2.5,0,0,0,1.2.1,1.6,1.6,0,0,0,.9-.7,1.4,1.4,0,0,0,.2-.6,1.5,1.5,0,0,0-.1-.6c0-.3-.3-.6-.7-.8a1.4,1.4,0,0,0-1.1-.2m-8.7-9.5h-.5a1.7,1.7,0,0,0-1.2.5l-.2.5v.6a.8.8,0,0,0,.2.5,1.3,1.3,0,0,0,.9.7,1.4,1.4,0,0,0,1.1-.1.8.8,0,0,0,.4-.4l.3-.5a1.4,1.4,0,0,0-.2-1.1c-.2-.4-.5-.7-.8-.7m3.2-1.1-.7.2a.5.5,0,0,0-.4.3l-.3.4a1.4,1.4,0,0,0-.2.6,1.4,1.4,0,0,0,.5,1,1.6,1.6,0,0,0,1.1.5l.5-.2.5-.3a1.3,1.3,0,0,0,.4-1,1.2,1.2,0,0,0-.4-1c-.1-.2-.2-.3-.4-.3l-.6-.2m3.9,1.3c-.1-.2-.3-.2-.5-.2h-.5a2.2,2.2,0,0,0-.9.7,1.7,1.7,0,0,0-.2,1.2,1.8,1.8,0,0,0,.7.8,1.4,1.4,0,0,0,1.1.2l.5-.3a.8.8,0,0,0,.4-.4,1.3,1.3,0,0,0,.1-1.2,1.3,1.3,0,0,0-.7-.8m11.6,3.8a2.7,2.7,0,0,0-2.2,1,2.9,2.9,0,0,0-1,2.3,2.8,2.8,0,0,0,1,2.2,2,2,0,0,0,1,.8l1.2.2a3.3,3.3,0,0,0,2.3-1,3.2,3.2,0,0,0,1-2.2,2.8,2.8,0,0,0-.3-1.3,3,3,0,0,0-.7-1,2.9,2.9,0,0,0-2.3-1m-7.3,2.9-.3-.5a1.4,1.4,0,0,0-1.1-.4,1.3,1.3,0,0,0-1,.4,1.4,1.4,0,0,0-.4,1.1,1.4,1.4,0,0,0,.4,1l.5.3h.5a1.4,1.4,0,0,0,1.1-.4,1.4,1.4,0,0,0,.4-1c0-.3,0-.5-.1-.6m-1.1-3.5-.3-.5-.5-.2a1.6,1.6,0,0,0-1.2.1,1.5,1.5,0,0,0-.6.9,2,2,0,0,0,0,1.1,1.7,1.7,0,0,0,1,.7h1.1a1.8,1.8,0,0,0,.7-.9,1.3,1.3,0,0,0-.2-1.1m8.2-6.1a2.2,2.2,0,0,0-1.2-.5,2.6,2.6,0,0,0-2.3.2,3.3,3.3,0,0,0-1.5,2,3.1,3.1,0,0,0,.2,2.5,4.3,4.3,0,0,0,2,1.5,5.6,5.6,0,0,0,1.3,0,2.8,2.8,0,0,0,1.2-.4,2.9,2.9,0,0,0,1.5-1.9,2.9,2.9,0,0,0-.4-2.4,2.7,2.7,0,0,0-.8-1m-4.7-4a2.8,2.8,0,0,0-1.5-2,2.1,2.1,0,0,0-1.1-.4,1.7,1.7,0,0,0-1.2.1,2.8,2.8,0,0,0-2,1.5,3,3,0,0,0-.3,2.5,3.1,3.1,0,0,0,1.5,1.9,3.4,3.4,0,0,0,2.4.3,2.4,2.4,0,0,0,1.1-.6,2.3,2.3,0,0,0,.8-.9,2.6,2.6,0,0,0,.3-2.4m-13.5-1.6a3.4,3.4,0,0,0,3.3,3.3,2.1,2.1,0,0,0,1.2-.3l1-.7a3.4,3.4,0,0,0,0-4.6l-.8-.6a3.2,3.2,0,0,0-1.4-.3,4,4,0,0,0-1.5.3l-.8.6a2.3,2.3,0,0,0-.7,1,2.8,2.8,0,0,0-.3,1.3m93.7,92.1a12.6,12.6,0,0,1-2.8-.4,14.9,14.9,0,0,1-7-3.9,14,14,0,0,1-4.2-9.9v-.6h-.1a13.8,13.8,0,0,0-3.3-8.7l-1-1a12.4,12.4,0,0,0-6.6-3.8,14.9,14.9,0,0,0-3.6-.5h-11.5l1.7.5h.5a7,7,0,0,1,2.3,1.1c.2.1.4.1.5.3l.9.7,1.2,1h.1l.2.3a8.7,8.7,0,0,1,1.7,2.1,3.3,3.3,0,0,1,.6,1,12.3,12.3,0,0,1,1.7,5.1v.7c0,.3.1.6.1.8v.4a24.5,24.5,0,0,0,.2,2.7,13.7,13.7,0,0,0,3.4,6.8l.6.6a18.2,18.2,0,0,0,4.7,3.3,15.6,15.6,0,0,0,5.7,1h14m-26.9-24.2a1.6,1.6,0,0,1,.5-1.1,1.7,1.7,0,0,1,1.1-.4h.3a1.1,1.1,0,0,1,.8.3,1.6,1.6,0,0,1,.5,1.1,1.7,1.7,0,0,1-.5,1.2,2,2,0,0,1-.8.4h-.3a2.5,2.5,0,0,1-1.1-.4,1.7,1.7,0,0,1-.5-1.2m28.6-6.8a14.3,14.3,0,0,0-2.9.3,14.9,14.9,0,0,0-7,3.9l-1.2,1.3a14.7,14.7,0,0,0-3,8.6v.5h0v.4a14,14,0,0,0,4.2,9.9,14.9,14.9,0,0,0,7,3.9,12.6,12.6,0,0,0,2.7.4h.6V557a13.6,13.6,0,0,0-2.6-7.9,14.6,14.6,0,0,0-1.6-1.9,13.9,13.9,0,0,0-9.9-4.2,14.4,14.4,0,0,0,9.9-4.2l1.8-2.2a14.3,14.3,0,0,0,2.4-7.6v-.7h-.4m-371,98.3.6-.2-.6.2h0m-1.2-42.5-.7.3a17,17,0,0,0-12.5,15.1v.5H764v13.4l-9,1.7v.3a5,5,0,0,0,2.3,4.1c1.4,1,3.7,1.1,7,.5l16.2-3.1v-.3a5.2,5.2,0,0,0-2.2-4.2c-1.5-.9-3.8-1.1-7.1-.4l-6.4,1.2h.1l.9-.2,2-.8.7-.3a15.7,15.7,0,0,0,4.1-3.2l1-1.1a16.6,16.6,0,0,0,2.9-4.7,16.4,16.4,0,0,0,1-3.8v-1.5h.1V584.1h-.3m5-48.3a9.5,9.5,0,0,0-2.9-7,9.4,9.4,0,0,0-6.9-2.8h-.2a8.4,8.4,0,0,0-3.5.7,8.2,8.2,0,0,1,6.9,8.3,8,8,0,0,1-2.4,5.8,7.9,7.9,0,0,1-6,2.5h-1.1a9,9,0,0,0,6.1,2.2h.2a9.7,9.7,0,0,0,9.8-9.7M827.8,556a8.2,8.2,0,0,0-3.5-1.3,7.6,7.6,0,0,0-5.6,1.6h-.1a7.5,7.5,0,0,0-2.8,5,7.9,7.9,0,0,0,.7,4.3l.8,1.3h.2l12-9.3-.2-.3-1.5-1.5m2.1-4.8a8.6,8.6,0,0,0-.1-1.6,7.1,7.1,0,0,0-3-4.9,6.9,6.9,0,0,0-5.5-1.5,7.1,7.1,0,0,0-5,3,.2.2,0,0,0-.2.2l12,9.1h.1c0-.1.1-.2.1-.3a7.7,7.7,0,0,0,1.6-4m14.2-4.9V546a7.7,7.7,0,0,0-5-2.8,7.5,7.5,0,0,0-5.6,1.6h0a7.2,7.2,0,0,0-2.9,5v1.4a7.5,7.5,0,0,0,1.6,4.2h.2l11.8-9.2m-2.3,9.6h0a7.2,7.2,0,0,0-5.7-1.4,7.7,7.7,0,0,0-3.6,1.5,9.2,9.2,0,0,0-1.4,1.4c0,.1-.1.1-.1.2l12.1,9.1a.2.2,0,0,1,.2-.2,7.4,7.4,0,0,0,1.4-5.6,7.4,7.4,0,0,0-2.9-5m-28.3-29.5v-.2a8.7,8.7,0,0,0-1.5-1.3,5.1,5.1,0,0,0-3-1.2,6.7,6.7,0,0,0-4.9,1.3H804a6.3,6.3,0,0,0-2.4,4.4,5.7,5.7,0,0,0,.7,3.8l.7,1.1h.1l10.4-8.2m13.5,2.7a6.3,6.3,0,0,0-2.5-4.3h-.1a6.7,6.7,0,0,0-8.1,0L815,526v.3l10.5,8,.2-.3a6.6,6.6,0,0,0,1.3-4.9m-13.1-9.9a6.3,6.3,0,0,0-2.6-4.3,6.3,6.3,0,0,0-9.3,1.3.2.2,0,0,0-.2.2l10.7,8v-.3a6.8,6.8,0,0,0,1.5-3.6,6.2,6.2,0,0,0-.1-1.3m12.6-2.9-.2-.3a6.6,6.6,0,0,0-4.4-2.5A6.8,6.8,0,0,0,817,515a6.6,6.6,0,0,0-2.5,4.4v1.1a6.6,6.6,0,0,0,1.4,3.8c.1,0,.1.1.1.2l10.5-8.2M1001.9,544H989.7c-1.1,0-1.7.7-1.7,1.9v16.8a4.5,4.5,0,0,0-2.9-1,4.4,4.4,0,0,0-3.2,1.3,4.9,4.9,0,0,0-1.4,3.4,4.8,4.8,0,0,0,4.6,4.6,4.8,4.8,0,0,0,3.4-1.4,5.6,5.6,0,0,0,1-1.4,7.5,7.5,0,0,0,.3-2.3V546.5h11.5v16.2a4,4,0,0,0-2.8-1,4.4,4.4,0,0,0-3.2,1.3,4.8,4.8,0,0,0-1.3,3.4,4.4,4.4,0,0,0,1.3,3.2,4.5,4.5,0,0,0,3.2,1.4,4.5,4.5,0,0,0,3.3-1.4,4,4,0,0,0,1.1-1.4,7.5,7.5,0,0,0,.3-2.3V544.6c-.1-.1-.2-.2-.2-.3l-.7-.3h-.4m-30.5-42.4h0v49.7c.2,2.2,1.1,3.1,2.7,2.9l6.1-1.3c1.8-.4,2.7-1.4,2.6-3h0V500.2c-.1-1.6-.7-2.5-1.7-2.7a1.4,1.4,0,0,0-.9-.1l-2.1.5-4.5.9a2.4,2.4,0,0,0-2.1,2.2,1.3,1.3,0,0,0-.1.6m-8-22.1v.2a.7.7,0,0,0-.4.6V498a4.5,4.5,0,0,0-2.8-1,3.9,3.9,0,0,0-3.2,1.5,4,4,0,0,0-1.4,3.2,4.8,4.8,0,0,0,4.6,4.7,4.5,4.5,0,0,0,3.3-1.4,4,4,0,0,0,1-1.5,4.3,4.3,0,0,0,.5-2.1V484.8l.6.7a.2.2,0,0,1,.2.2l.2.2h.1a3.8,3.8,0,0,0,1.7.8h.3a5.4,5.4,0,0,1,1.7.7h.2a1.7,1.7,0,0,1,.6.6,7.2,7.2,0,0,1,1.2,2.1c0,.2.1.3.1.5a5,5,0,0,1-.1,2.1,2.5,2.5,0,0,1-.2.7,3.1,3.1,0,0,0,1.2-1.5,4.3,4.3,0,0,0,.3-3c0-.2,0-.3-.1-.4h0a5.1,5.1,0,0,0-1.1-2.2l-.6-.6a.1.1,0,0,1-.1-.1,4.8,4.8,0,0,0-1.8-.6l-1.9-1c-.1,0-.2,0-.2-.1l-.4-.3-.7-.8-.3-.4-.4-.8a5.8,5.8,0,0,1-.5-1.4h0a1,1,0,0,0-.1-.3l-.3-.3a.9.9,0,0,0-.6-.3h-.6m-37.3,80.8a6,6,0,0,1,4.4,1.8,7,7,0,0,1,2,4.8h1.9v-18h-9.2v11.4h.9m-17.5-47.8c-.1-2.1-1-3.1-2.7-2.8l-6.1,1.3c-1.8.3-2.6,1.2-2.6,2.9h0v49.7c.2,2.1,1.1,3.1,2.8,2.8l6-1.3c1.8-.3,2.7-1.3,2.6-2.9h0V512.5m10.2,26.4h.4a10,10,0,0,0,5.2-2.2l.8-1a7.9,7.9,0,0,0,1.6-4.5h-8v7.7m14.8,0h-.3A8.3,8.3,0,0,0,929,541a7.9,7.9,0,0,0-2.2,5.5,7.9,7.9,0,0,0-1.6-4.4l-.8-.9a9.3,9.3,0,0,0-5.2-2.3h-.4v7.6h15.7v-7.7h-.1v-7.7h-7.6a7.7,7.7,0,0,0,2.2,5.5,8.1,8.1,0,0,0,4.3,2.2h.3m-44.1-14a7.5,7.5,0,0,1-5.2-2.4,8.8,8.8,0,0,1-2.5-5.6,8.1,8.1,0,0,1-2.3,5.7,7.8,7.8,0,0,1-5.5,2.3,8.2,8.2,0,0,1,5.6,2.4,8.1,8.1,0,0,1,2.4,5.2,7.1,7.1,0,0,1,2.3-5.2,7.7,7.7,0,0,1,5.2-2.4m-8.2-26.4a11,11,0,0,1-7.7,3.2,10.7,10.7,0,0,1,7.9,3.3,11,11,0,0,1,3.3,7.2A10,10,0,0,1,888,505a10.2,10.2,0,0,1,7.3-3.3,11.5,11.5,0,0,1-7.4-3.3,12,12,0,0,1-3.3-7.8,10.9,10.9,0,0,1-3.3,7.9m36.7-5.7a5.8,5.8,0,0,1,4.4,1.9,6.7,6.7,0,0,1,2,4.6h.8v29.6h9.2V490.5H917.2v2.3h.8m15.4,16.6v17h-7.2V509.6h0a3,3,0,0,1,.5-1.6,1.8,1.8,0,0,1,.6-.9,3.2,3.2,0,0,1,2.5-1,3.3,3.3,0,0,1,2.5,1,3.8,3.8,0,0,1,1.1,2.4m-36.2-16.6a5.7,5.7,0,0,1,4.1,1.7,5.4,5.4,0,0,1,1.7,3.9,6.4,6.4,0,0,1,1.8-3.9,5.8,5.8,0,0,1,3.8-1.7,5.5,5.5,0,0,1-3.8-1.8,5.8,5.8,0,0,1-1.8-4.1,5.8,5.8,0,0,1-1.8,4.2,5.4,5.4,0,0,1-4,1.7" transform="translate(-716.8 -410.7)"/><path class="cls-3" d="M965.7,440.7h-.5a14,14,0,0,0-5.7,2.1,20.3,20.3,0,0,0-2,1.4,48.8,48.8,0,0,0-4.2,3.8h-.1l-2.5,2.7a11.9,11.9,0,0,0-2.8,5.9,12.9,12.9,0,0,0,0,3.2,1.3,1.3,0,0,1,.1.6l.6,1.9.3.6c0,.1.1.1.1.2h0a10.5,10.5,0,0,0,2.7,2.9h0a12,12,0,0,0,8,2.2h1.1a15,15,0,0,0,4.5-1.6l3.7-2.4h0a55.1,55.1,0,0,0,4.5-3.9l.3-.2h0l.7-.6.3-.4c.1-.1.2-.3.4-.4h0a17.2,17.2,0,0,0,2.5-4.3h0a15.1,15.1,0,0,0,.6-3.6,10,10,0,0,0-4-8,10.3,10.3,0,0,0-3.5-1.7h-.1a11.7,11.7,0,0,0-5-.4m6.2,5.3h.1a5.9,5.9,0,0,1,2.3,4.8,10.1,10.1,0,0,1-.4,2.3,11.9,11.9,0,0,1-1.8,3l-.4.4-.2.3a1.2,1.2,0,0,0-.5.5l-.8.6-.7.5-1,.5h-.1a9.4,9.4,0,0,1-3.1,1h-.8a7.8,7.8,0,0,1-5.2-1.5,7.5,7.5,0,0,1-1.5-1.6.9.9,0,0,1-.1-.5h-.2a7,7,0,0,1-.5-2.5c0-.4.1-.7.1-1.1h0a7.7,7.7,0,0,1,1.4-3.4l.2-.2h0c0-.1.1-.1.1-.2l.2-.2.3-.3.2-.4h.1a12.2,12.2,0,0,1,1.7-1.5l.4-.2a11.6,11.6,0,0,1,4.3-1.6h.1a8.1,8.1,0,0,1,3.5.3h.1a6.2,6.2,0,0,1,2.2,1" transform="translate(-716.8 -410.7)"/><path class="cls-3" d="M1143.6,629.8a20,20,0,0,1-4.4,12.5,15.4,15.4,0,0,1-1.7,1.9,19.8,19.8,0,0,1-14,5.9,20.6,20.6,0,0,1,20.3,19.2,20.6,20.6,0,0,1,19.3-19.2,21,21,0,0,1-13.4-6l-1.6-1.8a21.4,21.4,0,0,1-4.5-12.5m-19.9,62.3a12.4,12.4,0,0,1,4.2-9,13.1,13.1,0,0,1,9-4.2,14.2,14.2,0,0,1-9.2-4.1,15.3,15.3,0,0,1-4.2-9.9,13.8,13.8,0,0,1-4.2,10,13.5,13.5,0,0,1-9.6,4,13.8,13.8,0,0,1,9.8,4.2,13.1,13.1,0,0,1,4.2,9" transform="translate(-716.8 -410.7)"/><path class="cls-3" d="M891.1,640.9a3.4,3.4,0,0,0-1.9.5c-2.3,1.1-3.4,3.6-3.4,7.6v14.4c0,.1.1.1.2.1h18.1a4.6,4.6,0,0,0,1.9-.4c2.3-1.2,3.4-3.8,3.4-7.7V641H891.1Zm2.1,9.2c0-1.6.2-2.5.5-2.8h8.4v6.9c0,1.6-.2,2.5-.6,2.8h-8.3v-6.9m-2.8-14.6v1.1c.6,1.7,1.7,2.6,3.1,2.6h.6c1.5,0,2.8-.9,4.1-2.6.6,1.5,1.5,2.3,2.8,2.3h.5a2.8,2.8,0,0,0,1.5-.4q3-1.5,3-4.2V634a2.2,2.2,0,0,0-.1-.9,3,3,0,0,0-3-2.2h-.4c-1.4,0-2.6.8-3.7,2.3h0c-.7-1.7-1.7-2.5-3.1-2.5h-.6a3.6,3.6,0,0,0-1.9.5c-1.9,1.2-2.8,2.7-2.8,4.3" transform="translate(-716.8 -410.7)"/><path class="cls-3" d="M925.9,640.9a15.9,15.9,0,0,0-4.3.6c-5.1,1.8-7.6,5.4-7.6,10.6s2.3,8.8,6.9,10.9c1.1.3,1.7.6,1.7.7-2.6,1.1-4.3,2-5.1,2.4-3.2,1.2-4.9,2.9-4.9,5.1v.3a9,9,0,0,0,1.2,4.2,34.5,34.5,0,0,0,3.6-1.9c9-4.4,13.9-7,14.9-7.5a16.9,16.9,0,0,0,4.2-3.8h.1c.3.7.7,1.1,1.1,1.1h7.2c.1,0,.1-.1.1-.2v-5c0-.1,0-.2-.1-.2h-5.8c-.2-.1-.3-.3-.4-.7s.2-2.8.2-3.7a17,17,0,0,0-1-6.1c-1.9-4.6-5.6-6.8-11-6.8Zm5,12.9a10.4,10.4,0,0,1-.6,3.8c-.5,1.7-2.1,3.3-4.6,4.6l-.2-.4a10,10,0,0,1-3.5-7.9c0-4.5,1.5-6.7,4.5-6.7s4.4,2.2,4.4,6.6" transform="translate(-716.8 -410.7)"/><path class="cls-3" d="M955.3,625.1c0-.1-.2-.2-.6-.2a13.5,13.5,0,0,0-4.6.7c-1.6.8-2.4,1.5-2.4,2.2v28.7c-.4,1.1-1,1.6-1.6,1.6h-4.6a.2.2,0,0,0-.2.2v5.1a.2.2,0,0,0,.2.2h6.6c2.6,0,4.3-.5,5.2-1.5.3,1,.8,1.5,1.3,1.5h7.2a.2.2,0,0,0,.2-.2v-5.1l-.2-.2H956c-.4-.1-.6-.9-.7-2.4Z" transform="translate(-716.8 -410.7)"/><path class="cls-3" d="M969.7,637.8l-3.6.4c-3.3.7-5,1.1-5,1.4s-.1,4-.4,10.2v.2c2.1-1.8,5-2.7,8.9-2.7a4.7,4.7,0,0,1,2.3.4c2.7,1.2,4.1,4.6,4.1,10.4H959c-.1,0-.1.1-.1.2v5.1c0,.1,0,.2.1.2h31.9a.2.2,0,0,0,.2-.2v-5.1l-.2-.2h-5.8c-.2,0-.3-.2-.5-.8a24.5,24.5,0,0,0,.2-3.4v-1.5c0-4.9-1.6-8.8-4.9-11.4a16.1,16.1,0,0,0-9.3-3.2h-.9Z" transform="translate(-716.8 -410.7)"/><path class="cls-3" d="M988.3,658.1l-.2.2v5.1a.2.2,0,0,0,.2.2H994c3.1,0,4.9-.4,5.5-1a7.1,7.1,0,0,0,2.3-3.6c.1-.7.2-1.2.3-1.2V625.1c0-.1-.2-.2-.6-.2a13.9,13.9,0,0,0-4.6.7c-1.6.8-2.4,1.5-2.4,2.2v28.7c-.4,1.1-.9,1.6-1.6,1.6Z" transform="translate(-716.8 -410.7)"/><path class="cls-3" d="M1014.2,628.4v-.3c-1.1-1.7-3.4-2.6-6.9-2.6-.4,0-.7.1-.7.2v35.5c1.1,1.8,3.4,2.6,6.9,2.6.4,0,.7-.1.7-.2Z" transform="translate(-716.8 -410.7)"/><path class="cls-3" d="M1025.7,624.9c-.5,0-.7.1-.7.2v32.7a1.5,1.5,0,0,1,.3.7,6.5,6.5,0,0,0,2,3.8c.6.9,2.6,1.3,5.8,1.3h5.8c.1,0,.1-.1.1-.2v-5.3h-4.7c-.6,0-1.1-.5-1.6-1.6V627.4c-1.1-1.7-3.4-2.5-6.9-2.5" transform="translate(-716.8 -410.7)"/><path class="cls-3" d="M1048.9,642.1c0-.2-.3-.2-.8-.3-3.9,0-6.5.9-7.7,2.7v9.7q0,3.9-2.7,3.9H1035l-.2.2v5.1c0,.1.1.1.2.1h7.5a5.3,5.3,0,0,0,4.1-1.6h0c.5,1.1.9,1.7,1.4,1.7h7.3c.1,0,.1-.1.1-.2v-5.3h-5.9c-.2,0-.4-.4-.6-1.4V642.1Zm-3.5-9.8a4.1,4.1,0,0,0-1.6.3c-2.1,1.1-3.2,2.5-3.2,4.4v.7c.5,1.9,1.6,2.8,3.2,2.8h.4a3.5,3.5,0,0,0,1.4-.3c2.2-1.1,3.2-2.5,3.2-4.3v-.8c-.5-1.9-1.5-2.8-3.1-2.8Z" transform="translate(-716.8 -410.7)"/><path class="cls-3" d="M1079.9,652.6a20.1,20.1,0,0,0-.8-5.3c-1.7-4-4.9-6-9.7-6h-.7a14.2,14.2,0,0,0-4.8.8c-3.9,1.6-5.8,5.1-5.8,10.4v.4a24.4,24.4,0,0,0,.2,3.2c-.1,1.3-.3,2-.7,2.2h-5.7c-.1,0-.2,0-.2.2v5a.2.2,0,0,0,.2.2h7.1c.7,0,1.3-.9,1.6-2.7h.1a10.7,10.7,0,0,0,8,3h.7a13.2,13.2,0,0,0,4.4-.8c4.1-1.6,6.1-5.1,6.1-10.6m-14.8-.4c0-3.9,1.2-5.8,3.8-5.8s3.9,1.8,3.9,5.5v.6a10.1,10.1,0,0,1-.4,2.9,3.4,3.4,0,0,1-3.4,2.7c-2.6,0-3.9-2-3.9-5.9" transform="translate(-716.8 -410.7)"/><path class="cls-3" d="M1083.6,624.9c-.4,0-.7.1-.7.2v32.7a2.4,2.4,0,0,1,.3.7,6.1,6.1,0,0,0,2.1,3.8c.6.9,2.5,1.3,5.7,1.3h5.8c.1,0,.1-.1.1-.2v-5.3h-4.7c-.6,0-1.1-.5-1.6-1.6V627.4c-1.1-1.7-3.4-2.5-6.9-2.5" transform="translate(-716.8 -410.7)"/><path class="cls-3" d="M1097,664.7a4,4,0,0,0-1.5.3c-2.1,1.1-3.2,2.6-3.2,4.5v.7c.5,1.8,1.5,2.8,3.1,2.8h.5c1.5,0,2.8-.9,3.9-2.5h.1a2.7,2.7,0,0,0,2.8,2.1h1c2.4-.9,3.6-2.3,3.6-4.3v-1.1a2.9,2.9,0,0,0-2.9-2.2h-.2a4.1,4.1,0,0,0-3.6,2.2h-.2a3,3,0,0,0-3-2.4Zm9.8-22.9c-3.9,0-6.5.9-7.6,2.6v9.7c0,2.7-.9,4-2.8,4h-2.6c-.1,0-.1.1-.1.2v5c0,.1,0,.2.1.2h7.5l1.8-.2c3.1-1,4.6-3.7,4.6-8V642c0-.1-.2-.2-.8-.2" transform="translate(-716.8 -410.7)"/><path class="cls-3" d="M1119.6,628.4v-.3c-1.1-1.7-3.4-2.6-6.9-2.6-.4,0-.7.1-.7.2v35.5c1.1,1.8,3.4,2.6,6.9,2.6.4,0,.7-.1.7-.2Zm-.7-15.3c0-.2-.7-.4-2-.6h-2.6a4,4,0,0,0-3,4.2v.5a5.7,5.7,0,0,0,.3,1.8,4,4,0,0,0,4,2.4h1.7a2.5,2.5,0,0,1-1.4.4h-.5a5.7,5.7,0,0,1-2.8-.8h-.1c.3,2,.5,3,.7,3h.6c3.4,0,5.1-.9,5.1-2.8v-.2a7.8,7.8,0,0,0-.3-2.2l-2.5.3c-1.3,0-2-.8-2-2.3s0-.6.1-.6.7-1.8,2.1-1.8v2.2c0,.1.1.1.2.1h2.3c.1,0,.1,0,.1-.1Z" transform="translate(-716.8 -410.7)"/></g></g></g></svg>